0
SECTION
2
HEADER
9
$INSUNITS
70
4
9
$ACADVER
1
AC1014
9
$HANDSEED
5
FFFF
0
ENDSEC
0
SECTION
2
TABLES
0
TABLE
2
VPORT
5
8
100
AcDbSymbolTable
0
ENDTAB
0
TABLE
2
LTYPE
5
5
100
AcDbSymbolTable
0
LTYPE
5
14
100
AcDbSymbolTableRecord
100
AcDbLinetypeTableRecord
2
BYBLOCK
70
0
0
LTYPE
5
15
100
AcDbSymbolTableRecord
100
AcDbLinetypeTableRecord
2
BYLAYER
70
0
0
ENDTAB
0
TABLE
2
LAYER
5
2
100
AcDbSymbolTable
70
2
0
LAYER
5
50
100
AcDbSymbolTableRecord
100
AcDbLayerTableRecord
2
0
70
0
6
CONTINUOUS
0
ENDTAB
0
TABLE
2
STYLE
5
3
100
AcDbSymbolTable
70
1
0
STYLE
5
11
100
AcDbSymbolTableRecord
100
AcDbTextStyleTableRecord
2
STANDARD
70
0
0
ENDTAB
0
TABLE
2
VIEW
5
6
100
AcDbSymbolTable
70
0
0
ENDTAB
0
TABLE
2
UCS
5
7
100
AcDbSymbolTable
70
0
0
ENDTAB
0
TABLE
2
APPID
5
9
100
AcDbSymbolTable
70
2
0
APPID
5
12
100
AcDbSymbolTableRecord
100
AcDbRegAppTableRecord
2
ACAD
70
0
0
ENDTAB
0
TABLE
2
DIMSTYLE
5
A
100
AcDbSymbolTable
70
1
0
ENDTAB
0
TABLE
2
BLOCK_RECORD
5
1
100
AcDbSymbolTable
70
1
0
BLOCK_RECORD
5
1F
100
AcDbSymbolTableRecord
100
AcDbBlockTableRecord
2
*MODEL_SPACE
0
BLOCK_RECORD
5
1B
100
AcDbSymbolTableRecord
100
AcDbBlockTableRecord
2
*PAPER_SPACE
0
ENDTAB
0
ENDSEC
0
SECTION
2
BLOCKS
0
BLOCK
5
20
100
AcDbEntity
100
AcDbBlockBegin
2
*MODEL_SPACE
0
ENDBLK
5
21
100
AcDbEntity
100
AcDbBlockEnd
0
BLOCK
5
1C
100
AcDbEntity
100
AcDbBlockBegin
2
*PAPER_SPACE
0
ENDBLK
5
1D
100
AcDbEntity
100
AcDbBlockEnd
0
ENDSEC
0
SECTION
2
ENTITIES
0
LINE
5
100
100
AcDbEntity
8
0
100
AcDbLine
10
56.817740000000001
20
66.521952000000013
30
0
11
54.796644000000008
21
61.946878000000005
31
0
0
LINE
5
101
100
AcDbEntity
8
0
100
AcDbLine
10
54.796644000000008
20
61.946878000000005
30
0
11
60.207574000000001
21
59.076122000000012
31
0
0
LINE
5
102
100
AcDbEntity
8
0
100
AcDbLine
10
60.207574000000001
20
59.076122000000012
30
0
11
64.649605999999991
21
60.612887999999998
31
0
0
LINE
5
103
100
AcDbEntity
8
0
100
AcDbLine
10
64.649605999999991
20
60.612887999999998
30
0
11
73.072425999999993
21
57.771644000000002
31
0
0
LINE
5
104
100
AcDbEntity
8
0
100
AcDbLine
10
73.072425999999993
20
57.771644000000002
30
0
11
75.568808000000004
21
67.157888
31
0
0
LINE
5
105
100
AcDbEntity
8
0
100
AcDbLine
10
75.568808000000004
20
67.157888
30
0
11
64.649605999999991
21
60.612887999999998
31
0
0
LINE
5
106
100
AcDbEntity
8
0
100
AcDbLine
10
64.649605999999991
20
60.612887999999998
30
0
11
56.817740000000001
21
66.521952000000013
31
0
0
LINE
5
107
100
AcDbEntity
8
0
100
AcDbLine
10
75.568808000000004
20
67.157888
30
0
11
73.40158000000001
21
76.489153999999999
31
0
0
LINE
5
108
100
AcDbEntity
8
0
100
AcDbLine
10
75.568808000000004
20
67.157888
30
0
11
82.237330000000014
21
69.08426
31
0
0
LINE
5
109
100
AcDbEntity
8
0
100
AcDbLine
10
82.237330000000014
20
69.08426
30
0
11
73.40158000000001
21
76.489153999999999
31
0
0
LINE
5
110
100
AcDbEntity
8
0
100
AcDbLine
10
73.40158000000001
20
76.489153999999999
30
0
11
56.817740000000001
21
66.521952000000013
31
0
0
LINE
5
111
100
AcDbEntity
8
0
100
AcDbLine
10
73.40158000000001
20
76.489153999999999
30
0
11
75.750878
21
81.652563999999984
31
0
0
LINE
5
112
100
AcDbEntity
8
0
100
AcDbLine
10
73.072425999999993
20
57.771644000000002
30
0
11
80.654154000000005
21
49.314314000000003
31
0
0
CIRCLE
5
113
100
AcDbEntity
8
0
100
AcDbCircle
10
56.817740000000001
20
66.521952000000013
30
0
40
0.999999999999998
0
CIRCLE
5
114
100
AcDbEntity
8
0
100
AcDbCircle
10
73.40158000000001
20
76.489153999999999
30
0
40
1
0
CIRCLE
5
115
100
AcDbEntity
8
0
100
AcDbCircle
10
75.750878
20
81.652563999999984
30
0
40
0.99999999999999911
0
CIRCLE
5
116
100
AcDbEntity
8
0
100
AcDbCircle
10
82.237330000000014
20
69.08426
30
0
40
1.0000000000000049
0
CIRCLE
5
117
100
AcDbEntity
8
0
100
AcDbCircle
10
73.072425999999993
20
57.771644000000002
30
0
40
1.0000000000000049
0
CIRCLE
5
118
100
AcDbEntity
8
0
100
AcDbCircle
10
75.568808000000004
20
67.157888
30
0
40
0.99999999999999689
0
CIRCLE
5
119
100
AcDbEntity
8
0
100
AcDbCircle
10
80.654154000000005
20
49.314314000000003
30
0
40
0.999999999999998
0
CIRCLE
5
120
100
AcDbEntity
8
0
100
AcDbCircle
10
64.649605999999991
20
60.612887999999998
30
0
40
1.0000000000000009
0
CIRCLE
5
121
100
AcDbEntity
8
0
100
AcDbCircle
10
54.796644000000008
20
61.946878000000005
30
0
40
1.0000000000000031
0
CIRCLE
5
122
100
AcDbEntity
8
0
100
AcDbCircle
10
60.207574000000001
20
59.076122000000012
30
0
40
0.99999999999999756
0
LWPOLYLINE
5
123
100
AcDbEntity
8
0
100
AcDbPolyline
90
4
70
1
43
0.0
10
90.09724812340221
20
45.817178027911503
10
50.097248123402203
20
45.817178027911503
10
50.097248123402203
20
85.817178027911496
10
90.09724812340221
20
85.817178027911496
0
LWPOLYLINE
5
124
100
AcDbEntity
8
0
100
AcDbPolyline
90
4
70
1
43
0.0
10
103.00000144541264
20
57.000000849366188
10
97.000001445412636
20
57.000000849366188
10
97.000001445412636
20
55.500000849366188
10
103.00000144541264
20
55.500000849366188
0
ENDSEC
0
SECTION
2
OBJECTS
0
DICTIONARY
5
C
100
AcDbDictionary
3
ACAD_GROUP
350
D
3
ACAD_MLINESTYLE
350
17
0
DICTIONARY
5
D
100
AcDbDictionary
0
DICTIONARY
5
1A
330
C
100
AcDbDictionary
0
DICTIONARY
5
17
100
AcDbDictionary
0
ENDSEC
0
EOF
